<svg width="696" height="87" viewBox="0 0 696 87" fill="none" xmlns="http://www.w3.org/2000/svg">
<path d="M1.96695e-06 1.19995H13.2V36.5999L30 1.19995H43.2L27.48 32.0399L43.44 85.2H29.64L18.48 47.76L13.2 58.44V85.2H1.96695e-06V1.19995ZM68.7703 86.4C62.3703 86.4 57.4903 84.6 54.1303 81C50.7703 77.32 49.0903 72.08 49.0903 65.28V1.19995H62.2903V66.24C62.2903 69.12 62.8503 71.2 63.9703 72.48C65.1703 73.76 66.8503 74.4 69.0103 74.4C71.1703 74.4 72.8103 73.76 73.9303 72.48C75.1303 71.2 75.7303 69.12 75.7303 66.24V1.19995H88.4503V65.28C88.4503 72.08 86.7703 77.32 83.4103 81C80.0503 84.6 75.1703 86.4 68.7703 86.4ZM97.8516 1.19995H117.412C124.212 1.19995 129.172 2.79995 132.292 5.99995C135.412 9.11995 136.972 13.9599 136.972 20.5199V25.6799C136.972 34.3999 134.092 39.9199 128.332 42.2399V42.48C131.532 43.4399 133.772 45.3999 135.052 48.3599C136.412 51.3199 137.092 55.28 137.092 60.24V75C137.092 77.4 137.172 79.36 137.332 80.88C137.492 82.32 137.892 83.76 138.532 85.2H125.092C124.612 83.84 124.292 82.56 124.132 81.36C123.972 80.16 123.892 78 123.892 74.88V59.5199C123.892 55.6799 123.252 52.9999 121.972 51.4799C120.772 49.9599 118.652 49.1999 115.612 49.1999H111.052V85.2H97.8516V1.19995ZM115.852 37.2C118.492 37.2 120.452 36.5199 121.732 35.1599C123.092 33.7999 123.772 31.5199 123.772 28.3199V21.84C123.772 18.7999 123.212 16.5999 122.092 15.24C121.052 13.8799 119.372 13.1999 117.052 13.1999H111.052V37.2H115.852ZM156.45 1.19995H174.33L188.01 85.2H174.81L172.41 68.5199V68.76H157.41L155.01 85.2H142.77L156.45 1.19995ZM170.85 57.36L164.97 15.84H164.73L158.97 57.36H170.85ZM189.653 1.19995H202.373L208.253 65.76H208.493L214.733 1.19995H229.133L235.373 65.76H235.613L241.493 1.19995H252.893L244.373 85.2H227.933L221.933 28.5599H221.693L215.693 85.2H198.173L189.653 1.19995ZM268.13 1.19995H286.01L299.69 85.2H286.49L284.09 68.5199V68.76H269.09L266.69 85.2H254.45L268.13 1.19995ZM282.53 57.36L276.65 15.84H276.41L270.65 57.36H282.53ZM306.094 1.19995H319.294V73.2H341.014V85.2H306.094V1.19995Z" fill="white"/>
<path d="M385.163 86.4C378.843 86.4 374.003 84.6 370.643 81C367.363 77.4 365.723 72.32 365.723 65.76V20.6399C365.723 14.0799 367.363 8.99995 370.643 5.39995C374.003 1.79995 378.843 -5.34058e-05 385.163 -5.34058e-05C391.483 -5.34058e-05 396.283 1.79995 399.563 5.39995C402.923 8.99995 404.603 14.0799 404.603 20.6399V29.5199H392.123V19.7999C392.123 14.5999 389.923 11.9999 385.523 11.9999C381.123 11.9999 378.923 14.5999 378.923 19.7999V66.7199C378.923 71.84 381.123 74.4 385.523 74.4C389.923 74.4 392.123 71.84 392.123 66.7199V53.88H404.603V65.76C404.603 72.32 402.923 77.4 399.563 81C396.283 84.6 391.483 86.4 385.163 86.4ZM412.5 1.19995H432.06C438.86 1.19995 443.82 2.79995 446.94 5.99995C450.06 9.11995 451.62 13.9599 451.62 20.5199V25.6799C451.62 34.3999 448.74 39.9199 442.98 42.2399V42.48C446.18 43.4399 448.42 45.3999 449.7 48.3599C451.06 51.3199 451.74 55.28 451.74 60.24V75C451.74 77.4 451.82 79.36 451.98 80.88C452.14 82.32 452.54 83.76 453.18 85.2H439.74C439.26 83.84 438.94 82.56 438.78 81.36C438.62 80.16 438.54 78 438.54 74.88V59.5199C438.54 55.6799 437.9 52.9999 436.62 51.4799C435.42 49.9599 433.3 49.1999 430.26 49.1999H425.7V85.2H412.5V1.19995ZM430.5 37.2C433.14 37.2 435.1 36.5199 436.38 35.1599C437.74 33.7999 438.42 31.5199 438.42 28.3199V21.84C438.42 18.7999 437.86 16.5999 436.74 15.24C435.7 13.8799 434.02 13.1999 431.7 13.1999H425.7V37.2H430.5ZM460.898 1.19995H496.898V13.1999H474.098V35.3999H492.218V47.3999H474.098V73.2H496.898V85.2H460.898V1.19995ZM514.692 1.19995H532.572L546.252 85.2H533.052L530.652 68.5199V68.76H515.652L513.252 85.2H501.012L514.692 1.19995ZM529.092 57.36L523.212 15.84H522.972L517.212 57.36H529.092ZM557.468 13.1999H543.668V1.19995H584.468V13.1999H570.668V85.2H557.468V13.1999ZM590.859 1.19995H604.059V85.2H590.859V1.19995ZM610.465 1.19995H623.785L632.425 66.36H632.665L641.305 1.19995H653.425L640.705 85.2H623.185L610.465 1.19995ZM659.766 1.19995H695.766V13.1999H672.966V35.3999H691.086V47.3999H672.966V73.2H695.766V85.2H659.766V1.19995Z" fill="#0F828C"/>
</svg>
