<svg width="696" height="87" viewBox="0 0 696 87" fill="none" xmlns="http://www.w3.org/2000/svg">
<path d="M1.96695e-06 1.20001H13.2V36.6L30 1.20001H43.2L27.48 32.04L43.44 85.2H29.64L18.48 47.76L13.2 58.44V85.2H1.96695e-06V1.20001ZM68.7703 86.4C62.3703 86.4 57.4903 84.6 54.1303 81C50.7703 77.32 49.0903 72.08 49.0903 65.28V1.20001H62.2903V66.24C62.2903 69.12 62.8503 71.2 63.9703 72.48C65.1703 73.76 66.8503 74.4 69.0103 74.4C71.1703 74.4 72.8103 73.76 73.9303 72.48C75.1303 71.2 75.7303 69.12 75.7303 66.24V1.20001H88.4503V65.28C88.4503 72.08 86.7703 77.32 83.4103 81C80.0503 84.6 75.1703 86.4 68.7703 86.4ZM97.8516 1.20001H117.412C124.212 1.20001 129.172 2.80001 132.292 6.00001C135.412 9.12001 136.972 13.96 136.972 20.52V25.68C136.972 34.4 134.092 39.92 128.332 42.24V42.48C131.532 43.44 133.772 45.4 135.052 48.36C136.412 51.32 137.092 55.28 137.092 60.24V75C137.092 77.4 137.172 79.36 137.332 80.88C137.492 82.32 137.892 83.76 138.532 85.2H125.092C124.612 83.84 124.292 82.56 124.132 81.36C123.972 80.16 123.892 78 123.892 74.88V59.52C123.892 55.68 123.252 53 121.972 51.48C120.772 49.96 118.652 49.2 115.612 49.2H111.052V85.2H97.8516V1.20001ZM115.852 37.2C118.492 37.2 120.452 36.52 121.732 35.16C123.092 33.8 123.772 31.52 123.772 28.32V21.84C123.772 18.8 123.212 16.6 122.092 15.24C121.052 13.88 119.372 13.2 117.052 13.2H111.052V37.2H115.852ZM156.45 1.20001H174.33L188.01 85.2H174.81L172.41 68.52V68.76H157.41L155.01 85.2H142.77L156.45 1.20001ZM170.85 57.36L164.97 15.84H164.73L158.97 57.36H170.85ZM189.653 1.20001H202.373L208.253 65.76H208.493L214.733 1.20001H229.133L235.373 65.76H235.613L241.493 1.20001H252.893L244.373 85.2H227.933L221.933 28.56H221.693L215.693 85.2H198.173L189.653 1.20001ZM268.13 1.20001H286.01L299.69 85.2H286.49L284.09 68.52V68.76H269.09L266.69 85.2H254.45L268.13 1.20001ZM282.53 57.36L276.65 15.84H276.41L270.65 57.36H282.53ZM306.094 1.20001H319.294V73.2H341.014V85.2H306.094V1.20001Z" fill="#273B4A"/>
<path d="M385.163 86.4C378.843 86.4 374.003 84.6 370.643 81C367.363 77.4 365.723 72.32 365.723 65.76V20.64C365.723 14.08 367.363 9.00001 370.643 5.40001C374.003 1.80001 378.843 7.62939e-06 385.163 7.62939e-06C391.483 7.62939e-06 396.283 1.80001 399.563 5.40001C402.923 9.00001 404.603 14.08 404.603 20.64V29.52H392.123V19.8C392.123 14.6 389.923 12 385.523 12C381.123 12 378.923 14.6 378.923 19.8V66.72C378.923 71.84 381.123 74.4 385.523 74.4C389.923 74.4 392.123 71.84 392.123 66.72V53.88H404.603V65.76C404.603 72.32 402.923 77.4 399.563 81C396.283 84.6 391.483 86.4 385.163 86.4ZM412.5 1.20001H432.06C438.86 1.20001 443.82 2.80001 446.94 6.00001C450.06 9.12001 451.62 13.96 451.62 20.52V25.68C451.62 34.4 448.74 39.92 442.98 42.24V42.48C446.18 43.44 448.42 45.4 449.7 48.36C451.06 51.32 451.74 55.28 451.74 60.24V75C451.74 77.4 451.82 79.36 451.98 80.88C452.14 82.32 452.54 83.76 453.18 85.2H439.74C439.26 83.84 438.94 82.56 438.78 81.36C438.62 80.16 438.54 78 438.54 74.88V59.52C438.54 55.68 437.9 53 436.62 51.48C435.42 49.96 433.3 49.2 430.26 49.2H425.7V85.2H412.5V1.20001ZM430.5 37.2C433.14 37.2 435.1 36.52 436.38 35.16C437.74 33.8 438.42 31.52 438.42 28.32V21.84C438.42 18.8 437.86 16.6 436.74 15.24C435.7 13.88 434.02 13.2 431.7 13.2H425.7V37.2H430.5ZM460.898 1.20001H496.898V13.2H474.098V35.4H492.218V47.4H474.098V73.2H496.898V85.2H460.898V1.20001ZM514.692 1.20001H532.572L546.252 85.2H533.052L530.652 68.52V68.76H515.652L513.252 85.2H501.012L514.692 1.20001ZM529.092 57.36L523.212 15.84H522.972L517.212 57.36H529.092ZM557.468 13.2H543.668V1.20001H584.468V13.2H570.668V85.2H557.468V13.2ZM590.859 1.20001H604.059V85.2H590.859V1.20001ZM610.465 1.20001H623.785L632.425 66.36H632.665L641.305 1.20001H653.425L640.705 85.2H623.185L610.465 1.20001ZM659.766 1.20001H695.766V13.2H672.966V35.4H691.086V47.4H672.966V73.2H695.766V85.2H659.766V1.20001Z" fill="#0F828C"/>
</svg>
