<svg width="64" height="64" viewBox="0 0 64 64" fill="none" xmlns="http://www.w3.org/2000/svg">
<rect width="64" height="64" rx="10" fill="#0F828C"/>
<circle cx="31.9988" cy="31.9998" r="27.0769" fill="white"/>
<path d="M36.3351 20.0112C36.3741 20.0109 36.413 20.0106 36.4532 20.0102C36.5822 20.0094 36.7112 20.0095 36.8403 20.0098C36.9306 20.0096 37.0209 20.0093 37.1112 20.0091C37.3009 20.0086 37.4906 20.0088 37.6803 20.0092C37.9213 20.0098 38.1622 20.0088 38.4032 20.0074C38.59 20.0066 38.7769 20.0066 38.9638 20.0068C39.0525 20.0069 39.1411 20.0066 39.2298 20.006C40.3744 19.9994 41.4061 20.2629 42.2666 21.0571C42.9507 21.7834 43.275 22.729 43.2682 23.7149C43.2684 23.7721 43.2686 23.8293 43.2687 23.8882C43.2691 24.0429 43.2687 24.1976 43.2681 24.3523C43.2676 24.5149 43.2678 24.6775 43.2679 24.8401C43.2679 25.1124 43.2674 25.3847 43.2665 25.657C43.2655 25.9718 43.2653 26.2867 43.2656 26.6015C43.2659 26.9052 43.2656 27.2089 43.2651 27.5127C43.2649 27.6417 43.2648 27.7707 43.2649 27.8997C43.265 28.0792 43.2644 28.2587 43.2636 28.4382C43.2638 28.5186 43.2638 28.5186 43.2639 28.6006C43.2636 28.6493 43.2633 28.6979 43.2629 28.748C43.2628 28.7904 43.2627 28.8328 43.2626 28.8765C43.245 29.0253 43.0742 29.0844 42.9244 29.0849C42.9058 29.085 42.8844 29.085 42.8591 29.085C42.7968 29.0853 42.7344 29.0856 42.6702 29.086C42.6019 29.0858 42.5335 29.0856 42.4651 29.0854C42.3953 29.0854 42.3255 29.0855 42.2557 29.0856C42.1093 29.0858 41.9629 29.0856 41.8166 29.0851C41.6287 29.0846 41.4409 29.0849 41.253 29.0855C41.1088 29.0858 40.9647 29.0857 40.8205 29.0855C40.7512 29.0854 40.6819 29.0855 40.6126 29.0857C40.5159 29.0859 40.4192 29.0855 40.3225 29.085C40.2674 29.085 40.2122 29.0849 40.1555 29.0848C40.1285 29.0823 40.1071 29.0803 40.0894 29.0779C39.9658 29.0611 39.9191 28.9113 39.9188 28.7866C39.9185 28.7465 39.9181 28.7064 39.9178 28.6651C39.9179 28.6211 39.9181 28.577 39.9182 28.5316C39.9178 28.4621 39.9178 28.4621 39.9174 28.3911C39.9169 28.2902 39.9167 28.1892 39.9166 28.0883C39.9164 27.9282 39.9156 27.7682 39.9146 27.6082C39.912 27.1531 39.9106 26.6979 39.9094 26.2428C39.9086 25.9646 39.9072 25.6864 39.9054 25.4082C39.9048 25.3023 39.9045 25.1965 39.9045 25.0906C39.9045 24.942 39.9037 24.7933 39.9026 24.6447C39.9028 24.6014 39.9031 24.5581 39.9033 24.5135C39.8986 24.0957 39.8221 23.7304 39.5372 23.4141C39.1573 23.0846 38.6515 23.1486 38.175 23.1622C37.8758 23.1856 37.7321 23.2224 37.5303 23.4449C37.4739 23.5236 37.4228 23.603 37.3739 23.6866C37.3035 23.8023 37.2195 23.9042 37.1339 24.009C37.0672 24.0909 37.0024 24.1742 36.9379 24.2579C36.7928 24.4452 36.6431 24.6286 36.493 24.812C36.3009 25.0469 36.1109 25.2831 35.9239 25.5221C35.6109 25.922 35.289 26.3145 34.9676 26.7076C34.6783 27.0616 34.3911 27.4168 34.1097 27.777C33.9036 28.0397 33.6906 28.2965 33.4775 28.5536C33.3158 28.749 33.1571 28.946 33.0027 29.1471C32.8466 29.3465 32.6857 29.542 32.5256 29.7381C32.3506 29.9527 32.1764 30.1679 32.0037 30.3843C31.9425 30.4609 31.8811 30.5374 31.8195 30.6137C31.725 30.7309 31.6311 30.8486 31.5374 30.9665C31.496 31.018 31.496 31.018 31.4537 31.0704C31.221 31.367 31.1181 31.6241 31.158 32.008C31.2129 32.44 31.4739 32.7073 31.7531 33.0181C31.8602 33.1407 31.9576 33.2691 32.0561 33.3987C32.2268 33.6232 32.4008 33.8447 32.5777 34.0645C32.7627 34.2944 32.9467 34.5249 33.129 34.7569C33.1504 34.7841 33.1718 34.8113 33.1938 34.8394C33.3006 34.9753 33.4072 35.1114 33.5137 35.2475C33.7431 35.5402 33.9751 35.8304 34.2108 36.118C34.4494 36.4092 34.6794 36.706 34.9068 37.0061C35.1173 37.2824 35.3376 37.5496 35.5602 37.8162C35.7731 38.0727 35.9741 38.3363 36.1723 38.6041C36.3509 38.8443 36.5392 39.0734 36.7329 39.3018C36.8571 39.4511 36.9765 39.6033 37.0946 39.7575C37.1143 39.7831 37.134 39.8088 37.1542 39.8352C37.244 39.9527 37.3336 40.0704 37.4231 40.1882C37.4526 40.2267 37.4821 40.2652 37.5125 40.3049C37.538 40.3383 37.5634 40.3717 37.5896 40.4062C37.6718 40.5156 37.8195 40.5346 37.9563 40.5379C38.0795 40.5407 38.2028 40.5407 38.3261 40.5411C38.4212 40.5416 38.5164 40.543 38.6115 40.5445C39.08 40.5506 39.1163 40.551 39.4557 40.3603C39.5167 40.326 39.5705 40.2798 39.6139 40.225C39.6362 40.1977 39.6585 40.1704 39.6815 40.1423C39.9133 39.8092 39.8908 39.4344 39.8919 39.0431C39.8922 38.9947 39.8925 38.9463 39.8928 38.8965C39.8935 38.7919 39.894 38.6874 39.8945 38.5828C39.8953 38.4175 39.8964 38.2522 39.8976 38.0868C39.9009 37.617 39.9038 37.1472 39.9062 36.6773C39.9077 36.3896 39.9097 36.1019 39.9119 35.8142C39.9127 35.7045 39.9133 35.5948 39.9137 35.485C39.9143 35.3321 39.9154 35.1793 39.9167 35.0264C39.9167 34.9807 39.9167 34.9351 39.9168 34.8881C39.9172 34.8466 39.9177 34.8052 39.9182 34.7624C39.9184 34.7263 39.9186 34.6901 39.9188 34.6529C39.9383 34.5126 40.103 34.4585 40.2447 34.4578C40.2661 34.4577 40.2914 34.4577 40.3225 34.4576C40.3848 34.4573 40.4472 34.457 40.5114 34.4567C40.5797 34.4569 40.6481 34.4571 40.7165 34.4573C40.7863 34.4572 40.8561 34.4571 40.9259 34.457C41.0723 34.4569 41.2187 34.4571 41.365 34.4575C41.5529 34.4581 41.7407 34.4578 41.9286 34.4572C42.0728 34.4568 42.2169 34.4569 42.3611 34.4572C42.4304 34.4573 42.4997 34.4572 42.569 34.457C42.6657 34.4567 42.7624 34.4572 42.8591 34.4576C42.9142 34.4577 42.9694 34.4578 43.0261 34.4578C43.0361 34.4588 43.0453 34.4596 43.0538 34.4604C43.2027 34.4749 43.2627 34.6453 43.2632 34.7949C43.2638 34.8679 43.2638 34.8679 43.2645 34.9424C43.2644 34.9961 43.2644 35.0497 43.2643 35.105C43.2647 35.1614 43.265 35.2177 43.2653 35.2758C43.2661 35.4309 43.2664 35.586 43.2664 35.7411C43.2665 35.8383 43.2667 35.9355 43.2669 36.0327C43.2678 36.3729 43.2682 36.7131 43.2681 37.0533C43.2681 37.3685 43.2691 37.6837 43.2706 37.9989C43.2718 38.2706 43.2723 38.5423 43.2723 38.814C43.2722 38.9757 43.2725 39.1375 43.2735 39.2992C43.2803 40.5997 43.1445 41.6679 42.214 42.6594C41.3151 43.4954 40.2239 43.7238 39.0348 43.7272C38.9453 43.7278 38.8557 43.7284 38.7661 43.729C38.5797 43.73 38.3932 43.7305 38.2068 43.7306C37.9686 43.7309 37.7304 43.7333 37.4922 43.7363C37.3077 43.7382 37.1233 43.7386 36.9388 43.7387C36.851 43.7389 36.7631 43.7397 36.6753 43.7411C35.9064 43.752 35.9064 43.752 35.6599 43.5405C35.5814 43.4521 35.5814 43.4521 35.5208 43.3703C35.489 43.3343 35.4572 43.2984 35.4245 43.2614C35.4015 43.2299 35.3785 43.1985 35.3548 43.1661C35.3277 43.1299 35.3006 43.0936 35.2726 43.0563C35.245 43.0193 35.2173 42.9823 35.1889 42.9442C35.1299 42.87 35.0706 42.796 35.011 42.7223C34.8565 42.5301 34.7038 42.3364 34.5516 42.1423C34.3947 41.9423 34.2363 41.7438 34.0745 41.5476C33.8941 41.3288 33.7182 41.1068 33.5433 40.8836C33.381 40.6767 33.2168 40.4713 33.0519 40.2664C32.7954 39.9473 32.5449 39.624 32.2961 39.2988C32.0355 38.959 31.7733 38.6206 31.508 38.2844C31.3303 38.059 31.1536 37.8328 30.9772 37.6063C30.9494 37.5706 30.9216 37.5349 30.8929 37.4981C30.7788 37.3514 30.6646 37.2047 30.5505 37.058C30.2509 36.6731 29.9512 36.2883 29.649 35.9054C29.5296 35.754 29.4108 35.6021 29.2927 35.4496C29.021 35.0993 28.7478 34.7507 28.4668 34.4077C28.2035 34.0859 27.9451 33.7614 27.6962 33.4283C27.6674 33.39 27.6385 33.3517 27.6088 33.3122C27.29 32.866 27.2463 32.425 27.2517 31.8867C27.2511 31.8315 27.2506 31.7762 27.25 31.7193C27.2517 31.2059 27.3503 30.8642 27.6696 30.4635C27.6946 30.4312 27.7196 30.3989 27.7453 30.3656C27.8231 30.2655 27.9018 30.1662 27.9808 30.067C28.0051 30.0363 28.0295 30.0056 28.0545 29.974C28.1726 29.8254 28.2913 29.6774 28.4105 29.5298C28.5462 29.3617 28.6802 29.1924 28.8136 29.0225C28.835 28.9953 28.8563 28.9682 28.8783 28.9402C28.9212 28.8855 28.9641 28.8308 29.007 28.7761C29.1153 28.6382 29.2238 28.5004 29.3323 28.3627C29.3759 28.3072 29.4196 28.2517 29.4633 28.1962C29.5483 28.0882 29.6334 27.9802 29.7185 27.8722C29.9911 27.5265 30.2621 27.1796 30.5324 26.8322C30.7008 26.6159 30.8697 26.4001 31.0395 26.1849C31.4562 25.6562 31.8702 25.1254 32.2784 24.59C32.4934 24.3081 32.7127 24.0302 32.9355 23.7544C33.1125 23.5347 33.2844 23.3115 33.455 23.0869C33.6846 22.7849 33.9207 22.4892 34.1613 22.1959C34.359 21.9545 34.5503 21.709 34.7398 21.4612C34.9298 21.2129 35.1239 20.9678 35.3179 20.7227C35.3753 20.65 35.4322 20.5769 35.4891 20.5038C35.5221 20.4618 35.555 20.4198 35.589 20.3765C35.6314 20.3221 35.6314 20.3221 35.6748 20.2665C35.8771 20.0375 36.0347 20.0095 36.3351 20.0112Z" fill="#0F828C"/>
<path d="M27.1257 20.0062C27.208 20.0063 27.2902 20.0064 27.3725 20.0064C27.5432 20.0066 27.7139 20.0073 27.8847 20.0084C28.1038 20.0097 28.323 20.0102 28.5422 20.0104C28.7113 20.0106 28.8804 20.0111 29.0495 20.0117C29.1304 20.0119 29.2113 20.0122 29.2923 20.0123C29.4045 20.0127 29.5167 20.0133 29.6289 20.0141C29.6624 20.0141 29.6959 20.0142 29.7304 20.0142C29.9591 20.0163 29.9591 20.0163 30.0123 20.0691C30.0172 20.1617 30.0189 20.2545 30.0192 20.3472C30.0195 20.4067 30.0198 20.4662 30.0201 20.5275C30.0202 20.593 30.0202 20.6584 30.0203 20.7239C30.0204 20.7905 30.0206 20.8572 30.0208 20.9239C30.021 21.0638 30.0211 21.2038 30.0211 21.3437C30.0211 21.5233 30.0217 21.7029 30.0226 21.8825C30.0231 22.0203 30.0232 22.1581 30.0232 22.2958C30.0232 22.3621 30.0234 22.4283 30.0238 22.4945C30.0243 22.587 30.0241 22.6795 30.0238 22.7721C30.0239 22.8248 30.024 22.8775 30.0241 22.9318C30.0123 23.0563 30.0123 23.0563 29.9168 23.1511C29.7993 23.1627 29.7993 23.1627 29.6493 23.1625C29.5932 23.1627 29.5372 23.1628 29.4794 23.163C29.4185 23.1628 29.3576 23.1626 29.2948 23.1624C29.1993 23.163 29.1038 23.1635 29.0083 23.1641C28.7725 23.1656 28.5367 23.1661 28.301 23.1656C28.1689 23.1654 28.0368 23.1658 27.9047 23.1669C27.7804 23.1678 27.656 23.1679 27.5317 23.1669C27.1832 23.1707 26.9401 23.2032 26.6728 23.4356C26.3631 23.7517 26.3178 24.0709 26.3205 24.4924C26.3203 24.5403 26.32 24.5882 26.3197 24.6376C26.3193 24.7413 26.3191 24.845 26.3193 24.9488C26.3195 25.1135 26.3188 25.2782 26.3179 25.443C26.3162 25.7933 26.3155 26.1436 26.315 26.4939C26.3145 26.8988 26.3134 27.3037 26.3112 27.7086C26.3106 27.8698 26.3108 28.031 26.311 28.1923C26.3093 28.8646 26.2866 29.5163 25.993 30.136C25.9787 30.1674 25.9643 30.1988 25.9495 30.2312C25.8225 30.5004 25.6675 30.7425 25.4802 30.9747C25.4444 31.0202 25.4087 31.0658 25.3719 31.1128C25.2342 31.276 25.0743 31.4027 24.9047 31.5318C24.8755 31.5546 24.8464 31.5774 24.8163 31.6009C24.6774 31.708 24.5456 31.8062 24.3829 31.8755C24.4118 31.8946 24.4407 31.9136 24.4705 31.9331C25.4283 32.579 26.0479 33.4082 26.2711 34.5429C26.3042 34.7576 26.3043 34.9698 26.3034 35.1866C26.3035 35.2355 26.3037 35.2845 26.3039 35.3349C26.3042 35.4403 26.3043 35.5457 26.3043 35.6512C26.3042 35.8182 26.3048 35.9853 26.3056 36.1523C26.3078 36.627 26.309 37.1016 26.3093 37.5763C26.3096 37.8674 26.3107 38.1585 26.3125 38.4495C26.3129 38.5601 26.313 38.6707 26.3128 38.7813C26.3124 38.936 26.3133 39.0906 26.3144 39.2452C26.314 39.2906 26.3136 39.3359 26.3132 39.3826C26.3174 39.7235 26.3969 39.9755 26.6251 40.2338C26.6723 40.2728 26.6723 40.2728 26.7205 40.3125C26.752 40.3393 26.7835 40.3662 26.8159 40.3938C26.9942 40.5132 27.1699 40.5114 27.3807 40.5134C27.4367 40.514 27.4928 40.5146 27.5505 40.5153C27.6108 40.5158 27.6711 40.5163 27.7332 40.5168C27.8278 40.518 27.9225 40.5191 28.0172 40.5203C28.2507 40.5232 28.4841 40.5256 28.7176 40.5277C28.8487 40.529 28.9799 40.5304 29.111 40.5321C29.2346 40.5337 29.3582 40.535 29.4818 40.5358C29.5375 40.5366 29.5932 40.5374 29.6507 40.5382C29.6999 40.5387 29.7491 40.5392 29.7998 40.5397C29.9168 40.5525 29.9168 40.5525 30.0123 40.6474C30.0241 40.7715 30.0241 40.7715 30.0238 40.9309C30.024 40.9903 30.0241 41.0498 30.0243 41.1111C30.024 41.1763 30.0236 41.2415 30.0233 41.3067C30.0232 41.3734 30.0232 41.44 30.0232 41.5066C30.0231 41.6462 30.0227 41.7859 30.0221 41.9256C30.0213 42.1048 30.0211 42.284 30.0211 42.4632C30.0211 42.6008 30.0208 42.7384 30.0205 42.8759C30.0203 42.942 30.0203 43.0081 30.0202 43.0742C30.0201 43.1665 30.0197 43.2588 30.0192 43.3511C30.019 43.4036 30.0188 43.4562 30.0186 43.5104C30.0123 43.6345 30.0123 43.6345 29.9646 43.7294C29.5112 43.7327 29.0579 43.7352 28.6046 43.7367C28.394 43.7375 28.1834 43.7385 27.9728 43.7401C27.769 43.7417 27.5652 43.7425 27.3613 43.7429C27.2842 43.7431 27.207 43.7436 27.1299 43.7444C25.8999 43.7563 24.8772 43.4477 23.9804 42.5914C23.3132 41.8925 22.9273 41.0248 22.9334 40.0569C22.9331 40.0059 22.9329 39.955 22.9326 39.9025C22.9321 39.7929 22.932 39.6833 22.9322 39.5737C22.9324 39.3998 22.9317 39.226 22.9308 39.0521C22.9288 38.6204 22.9282 38.1888 22.9276 37.7571C22.9271 37.3916 22.926 37.026 22.9241 36.6605C22.9234 36.49 22.9236 36.3195 22.9239 36.149C22.9234 36.0435 22.9229 35.938 22.9224 35.8325C22.9227 35.7858 22.923 35.7391 22.9233 35.6909C22.9176 35.0386 22.7276 34.4492 22.2719 33.9707C21.907 33.6321 21.5155 33.4561 21.0437 33.311C20.8852 33.2442 20.8436 33.2054 20.7573 33.0609C20.7384 32.9425 20.7384 32.9425 20.7372 32.8081C20.7365 32.7576 20.7357 32.7072 20.7349 32.6551C20.7349 32.6009 20.7349 32.5466 20.7349 32.4906C20.7345 32.4346 20.7342 32.3786 20.7338 32.3209C20.7333 32.2025 20.7331 32.0841 20.7334 31.9657C20.7334 31.7845 20.7314 31.6034 20.7293 31.4222C20.7291 31.3072 20.7289 31.1921 20.7289 31.0771C20.7282 31.0229 20.7274 30.9687 20.7266 30.9129C20.7299 30.5374 20.7299 30.5374 20.8695 30.3492C21.0097 30.254 21.1231 30.2136 21.288 30.1745C21.8721 30.0094 22.3377 29.6631 22.6463 29.138C22.8642 28.6911 22.9183 28.2469 22.9162 27.755C22.9164 27.7057 22.9166 27.6563 22.9167 27.6055C22.9171 27.4991 22.9172 27.3928 22.9171 27.2864C22.9171 27.1175 22.9177 26.9486 22.9185 26.7796C22.9207 26.2996 22.9219 25.8195 22.9222 25.3394C22.9224 25.045 22.9236 24.7505 22.9253 24.4561C22.9258 24.3446 22.9259 24.2331 22.9256 24.1216C22.924 23.3637 22.9568 22.6821 23.3215 21.9983C23.3378 21.9669 23.3541 21.9355 23.3709 21.9031C23.5181 21.6284 23.6947 21.3897 23.9059 21.1597C23.9305 21.1308 23.9552 21.102 23.9806 21.0723C24.7873 20.1881 25.9884 19.9972 27.1257 20.0062Z" fill="#273B4A"/>
</svg>
