<svg xmlns="http://www.w3.org/2000/svg" width="180" height="190" fill="none" viewBox="0 0 180 190"><path fill="#0f828c" d="M124.553 0.0429528C124.864 0.0403608 125.175 0.0377688 125.495 0.0350982C126.524 0.0281807 127.554 0.029653 128.583 0.0317962C129.303 0.0300722 130.024 0.0280681 130.744 0.0257972C132.258 0.0224191 133.771 0.0233428 135.284 0.0270938C137.206 0.0313974 139.128 0.0238578 141.05 0.0127738C142.541 0.00577366 144.032 0.00596306 145.523 0.00810493C146.23 0.00816219 146.938 0.00592998 147.645 0.00119687C156.775 -0.0512138 165.006 2.05036 171.87 8.38617C177.327 14.1798 179.915 21.7237 179.86 29.5881C179.862 30.0444 179.863 30.5006 179.865 30.9707C179.867 32.2049 179.865 33.439 179.86 34.6732C179.855 35.9702 179.857 37.2672 179.858 38.5643C179.858 40.7365 179.854 42.9087 179.847 45.0809C179.839 47.5924 179.837 50.104 179.84 52.6156C179.842 55.0384 179.84 57.4612 179.836 59.884C179.834 60.9133 179.833 61.9425 179.834 62.9717C179.834 64.4037 179.83 65.8356 179.823 67.2676C179.825 67.9088 179.825 67.9088 179.826 68.563C179.824 68.951 179.821 69.3389 179.818 69.7387C179.817 70.077 179.817 70.4152 179.816 70.7637C179.675 71.9504 178.313 72.4221 177.118 72.4264C176.969 72.4269 176.798 72.4271 176.597 72.4274C176.1 72.4298 175.602 72.4322 175.09 72.4346C174.545 72.4333 173.999 72.4317 173.454 72.43C172.897 72.4305 172.34 72.4312 171.783 72.4322C170.616 72.4333 169.448 72.4317 168.28 72.4281C166.782 72.4238 165.283 72.4263 163.784 72.4308C162.634 72.4336 161.484 72.4327 160.334 72.4307C159.781 72.4302 159.229 72.4309 158.676 72.4326C157.905 72.4345 157.133 72.4311 156.361 72.4274C155.922 72.4268 155.482 72.4262 155.029 72.4256C154.814 72.4056 154.644 72.3898 154.502 72.3705C153.516 72.236 153.143 71.0414 153.141 70.0465C153.139 69.7268 153.136 69.4071 153.133 69.0777C153.134 68.7261 153.135 68.3745 153.136 68.0123C153.133 67.4577 153.133 67.4577 153.13 66.8918C153.126 66.0865 153.124 65.2812 153.123 64.4758C153.122 63.1992 153.116 61.9227 153.108 60.6461C153.087 57.0155 153.076 53.3848 153.066 49.7542C153.06 47.5347 153.049 45.3153 153.034 43.0959C153.03 42.2515 153.028 41.4071 153.027 40.5628C153.027 39.3769 153.02 38.1912 153.012 37.0054C153.014 36.66 153.016 36.3145 153.017 35.9586C152.98 32.6258 152.37 29.7116 150.097 27.1883C147.066 24.5599 143.032 25.0704 139.23 25.179C136.844 25.3658 135.697 25.6597 134.088 27.4347C133.638 28.0624 133.23 28.6959 132.84 29.3625C132.278 30.2853 131.608 31.098 130.925 31.934C130.393 32.5879 129.876 33.2519 129.362 33.9199C128.204 35.4139 127.01 36.8773 125.812 38.3398C124.28 40.2138 122.764 42.0982 121.273 44.0048C118.776 47.1946 116.208 50.3259 113.644 53.4619C111.336 56.2857 109.045 59.119 106.8 61.993C105.156 64.0885 103.457 66.1373 101.758 68.1877C100.467 69.7463 99.2015 71.3178 97.9693 72.9227C96.7244 74.5132 95.4406 76.0723 94.1638 77.6372C92.7673 79.3488 91.3781 81.0658 89.9999 82.7922C89.5118 83.4032 89.022 84.0128 88.5311 84.6215C87.7772 85.5569 87.028 86.4958 86.2805 87.4363C85.9499 87.8467 85.9499 87.8467 85.6126 88.2654C83.7564 90.6312 82.9358 92.682 83.2541 95.7449C83.6922 99.1907 85.7743 101.323 88.0009 103.803C88.8554 104.78 89.6327 105.805 90.4181 106.839C91.7803 108.63 93.1684 110.397 94.5794 112.15C96.0547 113.984 97.5228 115.823 98.9771 117.673C99.1478 117.89 99.3185 118.107 99.4944 118.331C100.346 119.416 101.197 120.501 102.046 121.587C103.876 123.922 105.726 126.237 107.607 128.531C109.511 130.854 111.345 133.222 113.159 135.616C114.839 137.82 116.596 139.951 118.372 142.078C120.07 144.124 121.673 146.227 123.254 148.363C124.679 150.28 126.181 152.107 127.726 153.929C128.717 155.12 129.67 156.334 130.612 157.564C130.769 157.769 130.926 157.973 131.087 158.184C131.804 159.122 132.518 160.061 133.232 161C133.468 161.307 133.703 161.614 133.946 161.931C134.149 162.198 134.351 162.464 134.561 162.739C135.217 163.612 136.394 163.764 137.486 163.79C138.469 163.813 139.452 163.813 140.436 163.815C141.195 163.819 141.954 163.831 142.712 163.843C146.45 163.891 146.739 163.895 149.447 162.373C149.933 162.1 150.363 161.731 150.709 161.294C150.887 161.076 151.065 160.858 151.248 160.634C153.097 157.977 152.918 154.987 152.926 151.865C152.929 151.479 152.931 151.094 152.934 150.696C152.939 149.862 152.944 149.028 152.947 148.193C152.954 146.875 152.962 145.556 152.972 144.237C152.999 140.489 153.022 136.741 153.041 132.993C153.053 130.698 153.069 128.403 153.086 126.108C153.092 125.233 153.097 124.357 153.1 123.482C153.105 122.262 153.114 121.043 153.124 119.823C153.124 119.459 153.125 119.095 153.125 118.72C153.129 118.389 153.132 118.058 153.136 117.717C153.138 117.429 153.139 117.141 153.141 116.844C153.296 115.724 154.61 115.293 155.741 115.287C155.912 115.286 156.113 115.286 156.361 115.286C156.859 115.283 157.356 115.281 157.868 115.279C158.414 115.28 158.959 115.282 159.504 115.283C160.061 115.283 160.618 115.282 161.175 115.281C162.343 115.28 163.51 115.282 164.678 115.285C166.177 115.289 167.675 115.287 169.174 115.282C170.324 115.28 171.474 115.281 172.624 115.282C173.177 115.283 173.73 115.282 174.282 115.281C175.054 115.279 175.826 115.282 176.597 115.286C177.037 115.286 177.476 115.287 177.929 115.288C178.009 115.295 178.082 115.302 178.15 115.308C179.338 115.424 179.816 116.783 179.821 117.976C179.826 118.559 179.826 118.559 179.83 119.153C179.83 119.581 179.83 120.009 179.829 120.45C179.832 120.9 179.835 121.35 179.837 121.813C179.843 123.05 179.846 124.287 179.846 125.524C179.847 126.3 179.848 127.075 179.85 127.851C179.857 130.565 179.86 133.278 179.86 135.992C179.859 138.507 179.867 141.021 179.879 143.536C179.889 145.703 179.893 147.87 179.893 150.038C179.893 151.328 179.895 152.618 179.903 153.909C179.957 164.283 178.874 172.805 171.45 180.714C164.28 187.383 155.575 189.205 146.09 189.232C145.375 189.237 144.66 189.241 143.946 189.246C142.459 189.255 140.971 189.258 139.484 189.259C137.584 189.261 135.684 189.281 133.783 189.304C132.312 189.32 130.841 189.323 129.369 189.323C128.668 189.325 127.968 189.332 127.267 189.342C121.133 189.43 121.133 189.43 119.167 187.742C118.54 187.037 118.54 187.037 118.057 186.385C117.804 186.098 117.55 185.811 117.289 185.516C117.106 185.265 116.922 185.014 116.733 184.756C116.517 184.467 116.3 184.178 116.077 183.88C115.857 183.585 115.636 183.29 115.409 182.986C114.939 182.394 114.466 181.804 113.991 181.215C112.758 179.682 111.54 178.137 110.326 176.589C109.074 174.993 107.81 173.41 106.519 171.845C105.08 170.099 103.677 168.328 102.282 166.548C100.987 164.897 99.6778 163.258 98.3623 161.624C96.3162 159.078 94.3177 156.499 92.3332 153.905C90.2543 151.195 88.162 148.495 86.0461 145.813C84.6283 144.015 83.2187 142.211 81.8119 140.404C81.59 140.119 81.3681 139.834 81.1394 139.54C80.2287 138.37 79.3181 137.2 78.4076 136.03C76.018 132.959 73.6268 129.89 71.2162 126.835C70.2636 125.627 69.3162 124.415 68.3735 123.199C66.2063 120.405 64.0269 117.624 61.7859 114.888C59.6853 112.321 57.6241 109.732 55.6386 107.075C55.4084 106.769 55.1782 106.463 54.9411 106.148C52.3979 102.589 52.0491 99.0709 52.092 94.7772C52.0876 94.3363 52.0833 93.8955 52.0787 93.4413C52.0926 89.3456 52.8792 86.62 55.4258 83.4236C55.6252 83.1659 55.8246 82.9082 56.0301 82.6426C56.6507 81.8442 57.2782 81.0517 57.9083 80.2607C58.1025 80.0158 58.2967 79.7709 58.4968 79.5186C59.4383 78.3333 60.3852 77.1525 61.3366 75.975C62.4192 74.6345 63.4879 73.2835 64.5521 71.9284C64.7224 71.7117 64.8926 71.495 65.068 71.2717C65.4104 70.8356 65.7528 70.3994 66.0951 69.9632C66.9589 68.8628 67.8244 67.7638 68.6898 66.6647C69.038 66.2221 69.3863 65.7795 69.7345 65.337C70.4128 64.4751 71.0916 63.6135 71.7708 62.7523C73.945 59.9944 76.1069 57.2274 78.2636 54.4558C79.6068 52.7305 80.9544 51.0089 82.3084 49.2921C85.6329 45.0744 88.9351 40.8399 92.1914 36.5695C93.9068 34.3206 95.6563 32.1033 97.4339 29.9032C98.8453 28.1506 100.216 26.3701 101.578 24.5786C103.409 22.1697 105.293 19.8107 107.212 17.4711C108.789 15.5453 110.316 13.5867 111.827 11.6096C113.343 9.62907 114.891 7.67419 116.438 5.71891C116.896 5.13854 117.351 4.55545 117.805 3.97221C118.067 3.63726 118.33 3.30232 118.601 2.95723C118.94 2.52273 118.94 2.52273 119.285 2.07945C120.899 0.25286 122.157 0.0290099 124.553 0.0429528Z"/><path fill="#273b4a" d="M51.0474 0.00233398C51.7038 0.00349381 52.3603 0.00420092 53.0167 0.004481C54.3785 0.00620525 55.7402 0.0116015 57.102 0.0200642C58.8505 0.0308747 60.599 0.0349089 62.3475 0.0365867C63.6964 0.0381532 65.0454 0.0418608 66.3943 0.0463739C67.0398 0.048531 67.6853 0.0503309 68.3308 0.0517703C69.2261 0.0543547 70.1212 0.0595026 71.0164 0.0654979C71.2837 0.0659208 71.5509 0.0663436 71.8262 0.0667792C73.6503 0.0830563 73.6503 0.0830562 74.0745 0.504691C74.1143 1.24333 74.1273 1.9834 74.1298 2.72309C74.1322 3.19771 74.1347 3.67232 74.1372 4.16131C74.1377 4.68345 74.1382 5.20559 74.1384 5.72772C74.1397 6.25963 74.1409 6.79154 74.1423 7.32345C74.1446 8.43987 74.1453 9.55628 74.145 10.6727C74.145 12.1054 74.1502 13.538 74.1568 14.9707C74.161 16.0697 74.1618 17.1687 74.1616 18.2677C74.162 18.796 74.1637 19.3243 74.1666 19.8526C74.1703 20.5906 74.1688 21.3287 74.167 22.0668C74.1675 22.4873 74.1681 22.9078 74.1686 23.341C74.0745 24.3341 74.0745 24.3341 73.3134 25.0906C72.3755 25.1832 72.3755 25.1832 71.1792 25.1812C70.7319 25.1826 70.2847 25.184 69.8239 25.1855C69.3379 25.1839 68.8519 25.1824 68.3512 25.1807C67.5894 25.1851 66.8275 25.1894 66.0657 25.1944C64.1848 25.2059 62.304 25.2099 60.423 25.2061C59.3694 25.2043 58.3159 25.2076 57.2623 25.2161C56.2703 25.2239 55.2782 25.2243 54.2863 25.2163C51.5065 25.2468 49.5672 25.5057 47.435 27.3601C44.9646 29.8818 44.6025 32.4283 44.6246 35.7901C44.6225 36.1724 44.6205 36.5547 44.6184 36.9487C44.6147 37.776 44.6135 38.6034 44.6147 39.4308C44.6164 40.745 44.6111 42.0591 44.6039 43.3733C44.5899 46.1678 44.5847 48.9623 44.5807 51.7569C44.5761 54.9869 44.5678 58.2168 44.5503 61.4468C44.5452 62.733 44.5467 64.019 44.5485 65.3051C44.5348 70.6688 44.3535 75.867 42.0119 80.8108C41.8974 81.0614 41.7829 81.3119 41.665 81.5701C40.6515 83.718 39.4152 85.6493 37.9208 87.501C37.6358 87.8648 37.3508 88.2285 37.0571 88.6033C35.9583 89.9052 34.6834 90.9157 33.3303 91.9454C33.0975 92.1273 32.8647 92.3092 32.6249 92.4965C31.5173 93.351 30.4656 94.1344 29.1678 94.6877C29.3984 94.8393 29.629 94.991 29.8665 95.1472C37.5068 100.299 42.4501 106.914 44.2304 115.966C44.4944 117.678 44.4952 119.372 44.4876 121.101C44.489 121.491 44.4904 121.882 44.4918 122.284C44.4944 123.125 44.4954 123.966 44.4949 124.807C44.4945 126.14 44.4994 127.472 44.5059 128.805C44.5234 132.591 44.5329 136.378 44.5354 140.164C44.5373 142.486 44.5465 144.808 44.5602 147.13C44.564 148.012 44.5649 148.895 44.5628 149.777C44.5601 151.011 44.5667 152.244 44.5753 153.478C44.5722 153.839 44.5691 154.201 44.5659 154.573C44.5995 157.293 45.2338 159.303 47.0544 161.364C47.4311 161.675 47.4312 161.675 47.8155 161.992C48.0667 162.206 48.3179 162.42 48.5767 162.64C49.9987 163.593 51.4001 163.579 53.0819 163.594C53.5289 163.599 53.9758 163.604 54.4364 163.609C54.9173 163.613 55.3981 163.617 55.8936 163.621C56.6489 163.631 57.4041 163.64 58.1594 163.649C60.0217 163.672 61.8841 163.692 63.7465 163.709C64.7927 163.718 65.8388 163.73 66.8849 163.744C67.8708 163.757 68.8568 163.766 69.8428 163.773C70.2874 163.779 70.732 163.785 71.19 163.792C71.5826 163.796 71.9752 163.8 72.3797 163.804C73.3134 163.907 73.3134 163.907 74.0745 164.663C74.1686 165.654 74.1686 165.654 74.167 166.924C74.1681 167.399 74.1693 167.874 74.1705 168.362C74.1679 168.883 74.1651 169.403 74.1622 169.923C74.1618 170.454 74.1616 170.986 74.1617 171.517C74.1611 172.631 74.158 173.745 74.1528 174.86C74.1464 176.289 74.1449 177.719 74.1452 179.149C74.1451 180.246 74.143 181.343 74.1403 182.441C74.1391 182.968 74.1383 183.495 74.138 184.022C74.1372 184.759 74.1336 185.495 74.1298 186.231C74.1284 186.65 74.1269 187.07 74.1254 187.502C74.0745 188.492 74.0745 188.492 73.694 189.249C70.0777 189.275 66.4614 189.295 62.845 189.308C61.1652 189.314 59.4854 189.322 57.8055 189.335C56.1794 189.347 54.5533 189.354 52.9272 189.357C52.3119 189.359 51.6966 189.363 51.0813 189.369C41.2695 189.464 33.1108 187.002 25.9568 180.171C20.6343 174.596 17.556 167.674 17.6044 159.953C17.6024 159.546 17.6004 159.14 17.5982 158.721C17.5945 157.846 17.5934 156.972 17.5946 156.098C17.5963 154.711 17.5909 153.324 17.5838 151.937C17.5675 148.493 17.5632 145.05 17.5586 141.607C17.5542 138.69 17.5452 135.775 17.5301 132.859C17.525 131.498 17.5266 130.138 17.5284 128.778C17.5248 127.937 17.521 127.095 17.5167 126.253C17.5191 125.881 17.5214 125.508 17.5238 125.124C17.4782 119.921 15.9626 115.218 12.3278 111.401C9.41673 108.701 6.2939 107.297 2.52975 106.138C1.26548 105.606 0.933354 105.296 0.244868 104.144C0.0947697 103.199 0.0947697 103.199 0.0850604 102.127C0.0790049 101.724 0.0729494 101.322 0.0667104 100.907C0.0666338 100.474 0.0665571 100.041 0.0664781 99.5945C0.0635807 99.1478 0.0606832 98.7011 0.057698 98.2408C0.0535864 97.2962 0.0525022 96.3516 0.0542138 95.407C0.0545838 93.9615 0.0387454 92.5168 0.0218806 91.0715C0.019899 90.1537 0.018876 89.2359 0.0189075 88.3181C0.012668 87.8858 0.00642854 87.4536 0 87.0082C0.0262597 84.0132 0.0262598 84.0132 1.14035 82.5119C2.2585 81.7521 3.16364 81.4296 4.47866 81.1182C9.13841 79.8009 12.8523 77.0381 15.3144 72.85C17.0522 69.2847 17.4845 65.741 17.4675 61.817C17.4689 61.4235 17.4702 61.0299 17.4717 60.6244C17.4743 59.776 17.4752 58.9276 17.4747 58.0792C17.4744 56.7315 17.4793 55.3839 17.4858 54.0363C17.5033 50.2067 17.5127 46.3771 17.5152 42.5474C17.5172 40.1984 17.5264 37.8495 17.5401 35.5005C17.5438 34.611 17.5447 33.7215 17.5427 32.832C17.5295 26.7862 17.7911 21.349 20.7002 15.8945C20.8305 15.6437 20.9607 15.3929 21.0948 15.1344C22.2692 12.9432 23.6778 11.0394 25.3622 9.20432C25.5589 8.97419 25.7556 8.74405 25.9583 8.50694C32.3937 1.45352 41.975 -0.0687104 51.0474 0.00233398Z"/></svg>